<svg width="32" height="32" viewBox="0 0 32 32" fill="none" xmlns="http://www.w3.org/2000/svg">
<g clip-path="url(#clip0_278_2)">
<circle cx="16" cy="16" r="16" fill="#0F3923"/>
<path d="M12.6641 19.1895V5.09375H15.2891V19.1895C15.2891 20.502 15.0202 21.6094 14.4824 22.5117C13.9447 23.4141 13.2018 24.1022 12.2539 24.5762C11.3151 25.041 10.235 25.2734 9.01367 25.2734C7.79232 25.2734 6.70768 25.0638 5.75977 24.6445C4.81185 24.2253 4.06901 23.5872 3.53125 22.7305C2.99349 21.8737 2.72461 20.7936 2.72461 19.4902H5.36328C5.36328 20.3288 5.51823 21.0169 5.82812 21.5547C6.13802 22.0924 6.56641 22.4889 7.11328 22.7441C7.66927 22.9993 8.30273 23.127 9.01367 23.127C9.70638 23.127 10.3262 22.9811 10.873 22.6895C11.429 22.3887 11.8665 21.9466 12.1855 21.3633C12.5046 20.7708 12.6641 20.0462 12.6641 19.1895Z" fill="#F3F6E9"/>
<path d="M13.3105 5.09375H19.9004C21.3952 5.09375 22.6576 5.32161 23.6875 5.77734C24.7266 6.23307 25.515 6.90755 26.0527 7.80078C26.5996 8.6849 26.873 9.77409 26.873 11.0684C26.873 11.9798 26.6862 12.8138 26.3125 13.5703C25.9479 14.3177 25.4193 14.9557 24.7266 15.4844C24.043 16.0039 23.2227 16.3913 22.2656 16.6465L21.5273 16.9336H15.334L15.3066 14.7871H19.9824C20.9303 14.7871 21.7188 14.623 22.3477 14.2949C22.9766 13.9577 23.4505 13.5065 23.7695 12.9414C24.0885 12.3763 24.248 11.752 24.248 11.0684C24.248 10.3027 24.0977 9.63281 23.7969 9.05859C23.4961 8.48438 23.0221 8.04232 22.375 7.73242C21.737 7.41341 20.9121 7.25391 19.9004 7.25391H15.9492V25H13.3105V5.09375ZM24.9453 25L20.1055 15.9766L22.8535 15.9629L27.7617 24.8359V25H24.9453Z" fill="#F3F6E9"/>
</g>
<defs>
<clipPath id="clip0_278_2">
<rect width="32" height="32" fill="white"/>
</clipPath>
</defs>
	<style>
    @media (prefers-color-scheme:dark) {
        circle {
            fill: #F3F6E9;
        }
        path {
            fill: #0F3923;
        }        
    }
  </style>
</svg>
