<svg width="24" height="24" viewBox="0 0 24 24" fill="none" xmlns="http://www.w3.org/2000/svg">
<mask id="mask0_540_54" style="mask-type:alpha" maskUnits="userSpaceOnUse" x="0" y="0" width="24" height="24">
<circle cx="12" cy="12" r="12" fill="#D9D9D9"/>
</mask>
<g mask="url(#mask0_540_54)">
<circle cx="12" cy="12" r="11.5" stroke="currentColor"/>
<line x1="12" y1="0.5" x2="12" y2="23.5" stroke="currentColor"/>
<path d="M18.2826 12C18.2826 15.2437 17.5384 18.1557 16.3608 20.2393C15.1745 22.338 13.6133 23.5 12 23.5C10.3867 23.5 8.82552 22.338 7.63927 20.2393C6.46161 18.1557 5.71741 15.2437 5.71741 12C5.71741 8.75629 6.46161 5.8443 7.63927 3.76075C8.82552 1.662 10.3867 0.5 12 0.5C13.6133 0.5 15.1745 1.662 16.3608 3.76075C17.5384 5.8443 18.2826 8.75629 18.2826 12Z" stroke="currentColor"/>
<line x1="0.5" y1="12" x2="24" y2="12" stroke="currentColor"/>
<g filter="url(#filter0_d_540_54)">
<path d="M23.5 -4.17408C23.5 1.86833 18.3725 6.80418 12 6.80418C5.62755 6.80418 0.5 1.86833 0.5 -4.17408C0.5 -10.2165 5.62755 -15.1523 12 -15.1523C18.3725 -15.1523 23.5 -10.2165 23.5 -4.17408Z" stroke="currentColor" shape-rendering="crispEdges"/>
</g>
<path d="M23.5 28.1741C23.5 34.2165 18.3725 39.1523 12 39.1523C5.62755 39.1523 0.5 34.2165 0.5 28.1741C0.5 22.1316 5.62755 17.1958 12 17.1958C18.3725 17.1958 23.5 22.1316 23.5 28.1741Z" stroke="currentColor"/>
</g>
<defs>
<filter id="filter0_d_540_54" x="-4" y="-15.6523" width="32" height="30.9565" filterUnits="userSpaceOnUse" color-interpolation-filters="sRGB">
<feFlood flood-opacity="0" result="BackgroundImageFix"/>
<feColorMatrix in="SourceAlpha" type="matrix" values="0 0 0 0 0 0 0 0 0 0 0 0 0 0 0 0 0 0 127 0" result="hardAlpha"/>
<feOffset dy="4"/>
<feGaussianBlur stdDeviation="2"/>
<feComposite in2="hardAlpha" operator="out"/>
<feColorMatrix type="matrix" values="0 0 0 0 0 0 0 0 0 0 0 0 0 0 0 0 0 0 0.25 0"/>
<feBlend mode="normal" in2="BackgroundImageFix" result="effect1_dropShadow_540_54"/>
<feBlend mode="normal" in="SourceGraphic" in2="effect1_dropShadow_540_54" result="shape"/>
</filter>
</defs>
</svg>
