<svg width="72" height="15" viewBox="0 0 72 15" fill="none" xmlns="http://www.w3.org/2000/svg">
<path d="M4.35085 3.27273H5.66335V9.46023C5.66335 10.0199 5.55256 10.4986 5.33097 10.8963C5.11222 11.294 4.80398 11.598 4.40625 11.8082C4.00852 12.0156 3.54261 12.1193 3.00852 12.1193C2.51705 12.1193 2.07528 12.0298 1.68324 11.8509C1.29403 11.6719 0.985795 11.4119 0.758523 11.071C0.534091 10.7273 0.421875 10.3097 0.421875 9.81818H1.73011C1.73011 10.0597 1.78551 10.2685 1.89631 10.4446C2.00994 10.6207 2.16477 10.7585 2.3608 10.858C2.55966 10.9545 2.78693 11.0028 3.04261 11.0028C3.32102 11.0028 3.55682 10.9446 3.75 10.8281C3.94602 10.7088 4.09517 10.5341 4.19744 10.304C4.29972 10.0739 4.35085 9.79261 4.35085 9.46023V3.27273ZM7.5799 12V3.27273H13.0515V4.40625H8.89666V7.06534H12.766V8.1946H8.89666V10.8665H13.1026V12H7.5799ZM21.8544 3.27273V12H20.6442L16.2081 5.59943H16.1271V12H14.8104V3.27273H16.0291L20.4695 9.68182H20.5504V3.27273H21.8544ZM28.5352 5.56534C28.4897 5.16193 28.3022 4.84943 27.9727 4.62784C27.6431 4.40341 27.2283 4.29119 26.7283 4.29119C26.3704 4.29119 26.0607 4.34801 25.7994 4.46165C25.538 4.57244 25.3349 4.72585 25.19 4.92188C25.0479 5.11506 24.9769 5.33523 24.9769 5.58239C24.9769 5.78977 25.0252 5.96875 25.1218 6.11932C25.2212 6.26989 25.3505 6.39631 25.5096 6.49858C25.6715 6.59801 25.8448 6.68182 26.0295 6.75C26.2141 6.81534 26.3917 6.86932 26.5621 6.91193L27.4144 7.13352C27.6928 7.2017 27.9783 7.29403 28.271 7.41051C28.5636 7.52699 28.8349 7.6804 29.0849 7.87074C29.3349 8.06108 29.5366 8.29688 29.69 8.57812C29.8462 8.85938 29.9244 9.19602 29.9244 9.58807C29.9244 10.0824 29.7965 10.5213 29.5408 10.9048C29.288 11.2884 28.9201 11.5909 28.4371 11.8125C27.957 12.0341 27.3761 12.1449 26.6942 12.1449C26.0408 12.1449 25.4755 12.0412 24.9982 11.8338C24.521 11.6264 24.1474 11.3324 23.8775 10.9517C23.6076 10.5682 23.4585 10.1136 23.43 9.58807H24.7511C24.7766 9.90341 24.8789 10.1662 25.0579 10.3764C25.2397 10.5838 25.4712 10.7386 25.7525 10.8409C26.0366 10.9403 26.3477 10.9901 26.6857 10.9901C27.0579 10.9901 27.3888 10.9318 27.6786 10.8153C27.9712 10.696 28.2013 10.5312 28.369 10.321C28.5366 10.108 28.6204 9.85937 28.6204 9.57528C28.6204 9.31676 28.5465 9.10511 28.3988 8.94034C28.2539 8.77557 28.0565 8.6392 27.8065 8.53125C27.5593 8.4233 27.2795 8.32812 26.967 8.24574L25.9357 7.96449C25.2369 7.77415 24.6829 7.49432 24.2738 7.125C23.8675 6.75568 23.6644 6.26705 23.6644 5.65909C23.6644 5.15625 23.8008 4.71733 24.0735 4.34233C24.3462 3.96733 24.7156 3.67614 25.1815 3.46875C25.6474 3.25852 26.1729 3.15341 26.7582 3.15341C27.3491 3.15341 27.8704 3.2571 28.3221 3.46449C28.7766 3.67188 29.1346 3.95739 29.396 4.32102C29.6573 4.68182 29.7937 5.09659 29.805 5.56534H28.5352Z" fill="#6E0D25"/>
<path d="M31.2614 12V3.27273H33.9503C34.5014 3.27273 34.9759 3.38068 35.3736 3.59659C35.7713 3.8125 36.0767 4.11222 36.2898 4.49574C36.5028 4.87642 36.6094 5.3196 36.6094 5.82528C36.6094 6.32528 36.5028 6.76562 36.2898 7.14631C36.0767 7.52415 35.7713 7.8196 35.3736 8.03267C34.9787 8.24574 34.5057 8.35227 33.9545 8.35227H31.5469V7.85369H33.9418C34.3906 7.85369 34.7741 7.76989 35.0923 7.60227C35.4105 7.43466 35.6548 7.20028 35.8253 6.89915C35.9957 6.59517 36.081 6.23722 36.081 5.82528C36.081 5.41051 35.9957 5.04972 35.8253 4.7429C35.6548 4.43324 35.4091 4.19318 35.0881 4.02273C34.7699 3.85227 34.3864 3.76705 33.9375 3.76705H31.794V12H31.2614ZM34.8452 8.04545L36.9929 12H36.3793L34.2443 8.04545H34.8452ZM39.1939 12.2557L38.8274 12.0043L44.772 3.02131L45.1342 3.27273L39.1939 12.2557ZM45.6797 7.63636C45.6797 8.53693 45.5234 9.32386 45.2109 9.99716C44.8984 10.6676 44.4638 11.1889 43.907 11.5611C43.353 11.9332 42.7138 12.1193 41.9893 12.1193C41.2621 12.1193 40.62 11.9332 40.0632 11.5611C39.5092 11.1861 39.076 10.6634 38.7635 9.9929C38.451 9.3196 38.2947 8.53409 38.2947 7.63636C38.2947 6.7358 38.451 5.95028 38.7635 5.27983C39.0788 4.60937 39.5135 4.08807 40.0675 3.71591C40.6214 3.34091 41.2621 3.15341 41.9893 3.15341C42.7138 3.15341 43.353 3.33949 43.907 3.71165C44.4638 4.08381 44.8984 4.60653 45.2109 5.27983C45.5234 5.95028 45.6797 6.7358 45.6797 7.63636ZM45.1598 7.63636C45.1598 6.8267 45.0234 6.125 44.7507 5.53125C44.4808 4.9375 44.1072 4.47869 43.63 4.15483C43.1527 3.82812 42.6058 3.66477 41.9893 3.66477C41.3729 3.66477 40.826 3.8267 40.3487 4.15057C39.8714 4.47159 39.4964 4.9304 39.2237 5.52699C38.9538 6.12074 38.8189 6.82386 38.8189 7.63636C38.8189 8.44034 38.9524 9.14062 39.2195 9.73722C39.4893 10.331 39.8629 10.7912 40.3402 11.1179C40.8175 11.4446 41.3672 11.608 41.9893 11.608C42.6058 11.608 43.1527 11.446 43.63 11.1222C44.1072 10.7955 44.4808 10.3352 44.7507 9.74148C45.0234 9.14773 45.1598 8.44602 45.1598 7.63636ZM47.7614 3.27273H48.3409L51.7031 11.233H51.7628L55.125 3.27273H55.7045V12H55.1932V4.53835H55.142L51.9844 12H51.4815L48.3239 4.53835H48.2727V12H47.7614V3.27273ZM58.2262 12V3.27273H63.0842V3.76705H58.7589V7.38494H62.8242V7.87926H58.7589V11.5057H63.1864V12H58.2262ZM65.2926 12V3.27273H67.9815C68.5327 3.27273 69.0071 3.38068 69.4048 3.59659C69.8026 3.8125 70.108 4.11222 70.321 4.49574C70.5341 4.87642 70.6406 5.3196 70.6406 5.82528C70.6406 6.32528 70.5341 6.76562 70.321 7.14631C70.108 7.52415 69.8026 7.8196 69.4048 8.03267C69.0099 8.24574 68.5369 8.35227 67.9858 8.35227H65.5781V7.85369H67.973C68.4219 7.85369 68.8054 7.76989 69.1236 7.60227C69.4418 7.43466 69.6861 7.20028 69.8565 6.89915C70.027 6.59517 70.1122 6.23722 70.1122 5.82528C70.1122 5.41051 70.027 5.04972 69.8565 4.7429C69.6861 4.43324 69.4403 4.19318 69.1193 4.02273C68.8011 3.85227 68.4176 3.76705 67.9688 3.76705H65.8253V12H65.2926ZM68.8764 8.04545L71.0241 12H70.4105L68.2756 8.04545H68.8764Z" fill="#1C3738"/>
</svg>
